# xmcd
#
# Track frame offsets: 
#        150
#        17287
#        39776
#        63113
#        75258
#        100057
#        117209
#        131079
#        153287
#        182554
#        202386
#        221039
#        236923
#        259577
#        281196
#        297208
#        316710
#        334774
#
# Disc length: 4745 seconds
#
# Revision: 2
# Processed by: cddbd v1.5.1PL0 Copyright (c) Steve Scherf et al.
# Submitted via: ExactAudioCopy v0.95a5
#
DISCID=f6128712
DTITLE=Bush, Kate - Hit Collection
DYEAR=2000
DGENRE=Pop
TTITLE0=The Sensual World
TTITLE1=Wuthering Heights
TTITLE2=Cloudbusting
TTITLE3=The Man with the Child
TTITLE4=Breathing
TTITLE5=Wow
TTITLE6=Hounds of Love
TTITLE7=Running Up that Hill
TTITLE8=Don't Give Up (Peter Gabriel and Kate Bush)
TTITLE9=Experiment IV
TTITLE10=The Dreaming
TTITLE11=Babooshka
TTITLE12=The Fog
TTITLE13=Deeper Understanding
TTITLE14=This Woman's Work
TTITLE15=And So Is Love
TTITLE16=The Red Shoes
TTITLE17=You're the One
EXTD=
EXTT0=
EXTT1=
EXTT2=
EXTT3=
EXTT4=
EXTT5=
EXTT6=
EXTT7=
EXTT8=
EXTT9=
EXTT10=
EXTT11=
EXTT12=
EXTT13=
EXTT14=
EXTT15=
EXTT16=
EXTT17=
PLAYORDER=
